<?xml version="1.0" encoding="UTF-8"?>
<svg width="338px" height="92px" viewBox="0 0 338 92" version="1.1" xmlns="http://www.w3.org/2000/svg" xmlns:xlink="http://www.w3.org/1999/xlink">
    <!-- Generator: Sketch 48.2 (47327) - http://www.bohemiancoding.com/sketch -->
    <title>Group</title>
    <desc>Created with Sketch.</desc>
    <defs></defs>
    <g id="Page-1" stroke="none" stroke-width="1" fill="none" fill-rule="evenodd">
        <g id="Group" fill="#FFD100">
            <g id="Group-11">
                <path d="M139.801838,43.2827316 L109.764919,43.2827316 C110.819771,39.2499691 117.19786,29.3332783 129.046112,30.4184444 C141.787221,31.5899732 139.801838,43.2827316 139.801838,43.2827316 Z M127.614527,15.4739426 C121.28918,15.4739426 112.631857,17.4264906 104.125226,24.0839282 C84.9532851,39.0772437 75.4332429,91 116.610157,91 C127.283002,91 139.161392,87.6393646 147.400542,81.4400248 L139.948764,68.898659 C133.717601,73.6748917 102.32821,84.0646998 105.635925,58.7078605 L154.705395,58.7078605 C154.724231,58.6590468 160.959162,38.3788323 151.966546,26.1153291 C144.303797,15.6579327 130.195148,15.4739426 127.614527,15.4739426 Z M325,16.8144419 L266.515973,16.8144419 L262.933243,33.6626779 L296.861814,33.6626779 L254.426612,73.4796369 L250.975738,89.6820301 L309.463532,89.6820301 L313.068867,72.8450588 L278.93686,72.8450588 L321.586799,32.8441098 L325,16.8144419 Z M178.75226,23.1489581 C172.200874,28.6048277 168.474985,35.7466474 166.063894,47.018857 L156.965793,89.6820301 L175.704491,89.6820301 L183.254219,54.299608 C185.039934,46.0275634 186.403707,40.8495564 189.523056,37.6616464 C193.814045,33.2946978 200.033906,33.0506293 207.496986,33.6626779 L211.098553,16.8144419 C197.935503,13.4800908 186.433846,16.7506086 178.75226,23.1489581 Z M70.8785413,0 L61.9462025,41.7770167 L29.0913201,41.7770167 L38.0010549,0 L19.104129,0 L0,89.6820301 L18.8818565,89.6820301 L25.4784509,58.6064782 L58.3484027,58.6064782 L51.7329717,89.6820301 L70.4566004,89.6820301 L89.5833333,0 L70.8785413,0 Z M229.422845,71.8349907 C226.657625,68.8686198 228.311483,62.9621622 229.727999,56.3009697 L234.557715,33.6626779 L254.419078,33.6626779 L258.016878,16.8144419 L238.144213,16.8144419 L241.666667,0 L222.946805,0 L210.676612,57.8517433 C208.826854,66.495523 208.133665,73.2543429 211.897227,80.5350939 C215.397077,87.3014236 227.350814,93.7636064 242.48041,89.6820301 L245.825799,74.0428719 C235.56736,75.3082732 231.442134,73.9790386 229.422845,71.8349907 Z" id="Fill-9"></path>
            </g>
            <path d="M330.894723,71.9728975 C332.503686,71.9728975 333.94976,72.3857172 335.232989,73.211369 C336.516219,74.0370208 337.353221,75.2183202 337.744023,76.7553027 C338.134824,78.2922852 338.078147,79.8948724 337.573991,81.5631124 C337.074953,83.2144159 336.173828,84.802184 334.870589,86.3264642 C333.567351,87.8507443 332.028413,89.0341608 330.253729,89.876749 C328.479046,90.7193372 326.761844,91.140625 325.102072,91.140625 C323.442301,91.140625 321.979732,90.7193372 320.714324,89.876749 C319.448915,89.0341608 318.623137,87.8507443 318.236965,86.3264642 C317.850793,84.802184 317.907226,83.2144159 318.406264,81.5631124 C318.91042,79.8948724 319.824491,78.2922852 321.148505,76.7553027 C322.472519,75.2183202 324.025636,74.0370208 325.807904,73.211369 C327.590171,72.3857172 329.285761,71.9728975 330.894723,71.9728975 Z M330.414881,73.5606814 C329.068434,73.5606814 327.653711,73.9057564 326.170671,74.5959166 C324.687632,75.2860768 323.392374,76.27261 322.284861,77.5555458 C321.177348,78.8384816 320.413751,80.1743238 319.994047,81.5631124 C319.576903,82.9434328 319.530582,84.2665728 319.855083,85.5325722 C320.179583,86.7985716 320.870095,87.7851048 321.926638,88.4922014 C322.983181,89.1992981 324.201594,89.5528411 325.581914,89.5528411 C326.962235,89.5528411 328.394335,89.1992981 329.87826,88.4922014 C331.362184,87.7851048 332.646856,86.7985716 333.732314,85.5325722 C334.817772,84.2665728 335.569063,82.9434328 335.986207,81.5631124 C336.405911,80.1743238 336.451837,78.8384816 336.123986,77.5555458 C335.796135,76.27261 335.097156,75.2860768 334.027026,74.5959166 C332.956897,73.9057564 331.752861,73.5606814 330.414881,73.5606814 Z M322.191274,86.8599596 L325.308327,76.5457152 L328.852261,76.5457152 C330.063216,76.5457152 330.910874,76.6409813 331.395259,76.8315163 C331.879644,77.0220513 332.211071,77.3544241 332.38955,77.8286446 C332.568029,78.3028651 332.576655,78.8067168 332.415427,79.3402149 C332.187661,80.0938868 331.720466,80.7501642 331.013829,81.309067 C330.307192,81.8679697 329.499067,82.1812893 328.58943,82.2490351 C328.907498,82.4014631 329.144626,82.5835271 329.300821,82.7952327 C329.592924,83.2017074 329.895,83.8833892 330.207057,84.8402984 L330.854223,86.8599596 L328.82186,86.8599596 L328.398654,85.2340688 C328.06529,83.9553671 327.727063,83.155132 327.383964,82.8333395 C327.150765,82.5962293 326.742018,82.4776759 326.15771,82.4776759 L325.179635,82.4776759 L323.855272,86.8599596 L322.191274,86.8599596 Z M325.609574,81.0550215 L327.629235,81.0550215 C328.594612,81.0550215 329.296512,80.9110639 329.734955,80.6231443 C330.173398,80.3352247 330.464272,79.9541604 330.607585,79.4799399 C330.699715,79.1750839 330.697566,78.9019878 330.601138,78.6606434 C330.50471,78.419299 330.324102,78.239352 330.059308,78.1207969 C329.794515,78.0022417 329.255651,77.9429651 328.442702,77.9429651 L326.550064,77.9429651 L325.609574,81.0550215 Z" id="®"></path>
        </g>
    </g>
</svg>