<svg id="Layer_1" data-name="Layer 1" xmlns="http://www.w3.org/2000/svg" viewBox="0 0 2931.35 689.66"><defs><style>.cls-1{fill:#5899d3;}</style></defs><title>AutoSense Logo_HIRES</title><path d="M987.05,278.38,905.51,497.2h54.6l19.47-55.3h62.82l19.88,55.3h54.83l-81.54-218.82Zm24.43,71c.52,1.52,1,2.81,1.39,3.88L1027.22,395H995.69l13.61-39.28C1010.06,353.57,1010.78,351.48,1011.48,349.39Z"/><path d="M1275.07,412.58c0,26.91-11.28,38.91-36.59,38.91-13.09,0-22.64-3-28.39-8.87s-8.75-16-8.75-29.77V277.43h-51.57V415.16c0,25.46,7.9,45.9,23.49,60.77s37,22.22,64.13,22.22c18,0,33.84-3.33,47-9.91A72.61,72.61,0,0,0,1315.79,459c7.11-12.42,10.71-27,10.71-43.29V277.43h-51.43Z"/><polygon points="1396.58 325.59 1455.14 325.59 1455.14 496.79 1506.58 496.79 1506.58 325.59 1565.14 325.59 1565.14 278.79 1396.58 278.79 1396.58 325.59"/><path d="M1716.06,275.86c-32.67,0-58.35,9.91-76.34,29.47-17.79,19.33-26.81,47-26.81,82.12s8.95,62.85,26.61,82.39c17.9,19.83,43.56,29.88,76.26,29.88,32.34,0,57.86-10.13,75.86-30.09,17.75-19.68,26.74-47.24,26.74-81.91s-9-62.32-26.67-81.92C1773.75,285.93,1748.3,275.86,1716.06,275.86Zm36.09,162c-8,10.22-19.93,15.18-36.37,15.18s-28.47-5-36.55-15.36c-8.53-10.92-12.85-27.72-12.85-50s4.34-38.86,12.89-49.72c8.13-10.32,20.17-15.34,36.79-15.34,16.4,0,28.23,5,36.18,15.27,8.41,10.88,12.67,27.63,12.67,49.79C1764.91,410.22,1760.61,427.09,1752.15,437.87Z"/><path class="cls-1" d="M2012.37,383.78c-8-5.5-20-11.15-36.6-17.27-13.47-4.92-22.79-8.87-27.71-11.72-5.23-3-7.62-5.61-8.73-7.26a13.67,13.67,0,0,1-2-7.83,12,12,0,0,1,5.3-10.38c4.32-3.21,11.26-4.84,20.64-4.84,13.87,0,48.66,16.63,48.66,16.63l17.91-32.36s-38.57-25.48-68.53-25.48c-23.21,0-39.33,2.22-53.5,12.37-15.1,10.8-22.75,25.79-22.75,44.58,0,14.81,4.8,27.71,14.25,38.34,9.1,10.22,23.82,18.89,45,26.5,22.38,8,31.4,13.16,35,16.11,4,3.28,5.9,6.88,5.9,11.33,0,5.07-1.92,8.69-6.23,11.75-8.75,6.19-31,9.31-52.61,2.53-10.17-3.2-26.9-15.17-26.9-15.17l-21.85,36.29s49,24.41,74.39,24.41c26,0,45.79-4.28,61-14.9,16.22-11.32,24.44-27.13,24.44-47,0-10-2.08-18.94-6.19-26.54S2020.85,389.58,2012.37,383.78Z"/><path class="cls-1" d="M2699.67,383.78c-8-5.5-20-11.15-36.6-17.27-13.47-4.92-22.79-8.87-27.71-11.72-5.23-3-7.63-5.61-8.73-7.26a13.67,13.67,0,0,1-2.05-7.83,12,12,0,0,1,5.3-10.38c4.31-3.21,11.26-4.84,20.64-4.84,13.87,0,48.66,16.63,48.66,16.63l17.9-32.36s-38.56-25.48-68.52-25.48c-23.21,0-39.33,2.22-53.51,12.37-15.09,10.8-22.74,25.79-22.74,44.58,0,14.81,4.79,27.71,14.25,38.34,9.1,10.22,23.82,18.89,45,26.5,22.38,8,31.4,13.16,35,16.11,4,3.28,5.9,6.88,5.9,11.33,0,5.07-1.92,8.69-6.24,11.75-8.75,6.19-31,9.31-52.6,2.53-10.18-3.2-26.9-15.17-26.9-15.17l-21.85,36.29s49,24.41,74.38,24.41c26,0,45.79-4.28,61-14.9,16.23-11.32,24.45-27.13,24.45-47,0-10-2.09-18.94-6.19-26.54S2708.14,389.58,2699.67,383.78Z"/><polygon class="cls-1" points="2104.76 491.4 2236.28 491.4 2236.28 455.65 2145.41 455.65 2145.41 401.23 2220.45 401.23 2220.45 365.9 2145.41 365.9 2145.41 319.79 2236.28 319.79 2236.28 284.18 2104.76 284.18 2104.76 491.4"/><polygon class="cls-1" points="2905.68 319.79 2905.68 284.18 2774.16 284.18 2774.16 491.4 2905.68 491.4 2905.68 455.65 2814.8 455.65 2814.8 401.23 2889.84 401.23 2889.84 365.9 2814.8 365.9 2814.8 319.79 2905.68 319.79"/><path class="cls-1" d="M2436.84,410.24c.13,3.18-79.74-126.06-79.74-126.06h-45.8V491.4h48.43s-.5-112.17-1.5-126.9l80.84,126.9h46.21V284.18h-48.71S2436.29,397.05,2436.84,410.24Z"/><polygon points="961.73 586.25 951.87 586.25 924.6 614.71 919.3 620.01 919.3 586.25 911.81 586.25 911.81 657.57 919.3 657.57 919.3 628.66 926.88 621.97 952.74 657.57 961.95 657.57 932.19 616.73 961.73 586.25"/><path d="M1034.6,632.37c0,3.72.08,7.65.23,11.74l-38.62-57.86h-6.85v71.31h7.3V611.72c0-3-.12-7-.36-12.23L1035,657.56H1042V586.25h-7.35Z"/><path d="M1112.13,585.24c-9.87,0-17.78,3.32-23.51,9.87s-8.57,15.47-8.57,26.68,2.85,20.25,8.49,26.81,13.6,10,23.51,10,17.85-3.35,23.54-10,8.5-15.55,8.5-26.71-2.84-20.19-8.45-26.72S1122.08,585.24,1112.13,585.24Zm24,36.65c0,9.55-2.1,17-6.24,22s-10,7.48-17.89,7.48-13.68-2.47-17.83-7.55-6.27-12.47-6.27-21.93,2.13-16.77,6.34-21.81,10-7.5,17.84-7.5,13.68,2.43,17.81,7.43S1136.18,612.36,1136.18,621.89Z"/><polygon points="1236.6 650.64 1222.26 612.49 1234.86 586.59 1227.46 586.59 1219.02 603.94 1213.24 586.59 1205.73 586.59 1215.67 612.49 1198.33 650.64 1176.71 586.59 1169.19 586.59 1194.05 657.23 1202.49 657.23 1219.02 620.69 1232.43 657.23 1240.64 657.23 1269.77 586.59 1262.37 586.59 1236.6 650.64"/><polygon points="1359.96 622.28 1340.77 586.25 1332.2 586.25 1356.06 630.41 1356.06 657.57 1363.69 657.57 1363.69 630.04 1387.47 586.25 1379.23 586.25 1359.96 622.28"/><path d="M1446.6,585.24c-9.88,0-17.79,3.32-23.53,9.87s-8.57,15.47-8.57,26.68,2.86,20.25,8.5,26.81,13.59,10,23.5,10,17.87-3.35,23.55-10,8.49-15.55,8.49-26.71-2.84-20.19-8.44-26.72S1456.53,585.24,1446.6,585.24Zm24,36.65c0,9.55-2.11,17-6.25,22s-10,7.48-17.89,7.48-13.67-2.47-17.83-7.55-6.26-12.47-6.26-21.93,2.13-16.77,6.33-21.81,10-7.5,17.86-7.5,13.66,2.43,17.8,7.43S1470.64,612.36,1470.64,621.89Z"/><path d="M1560.72,632c0,6-1.68,10.75-5,14.09s-8.11,5-14.25,5c-6.29,0-11.2-1.72-14.58-5.12s-5.1-8.26-5.1-14.46V585.78h-7.53v45.56c0,8.31,2.38,14.91,7.08,19.61s11.28,7.08,19.56,7.08c8.5,0,15.24-2.37,20-7s7.26-11.24,7.26-19.46V585.78h-7.49Z"/><path d="M1650.48,619a20,20,0,0,0,3.91-12.47c0-6.73-2.23-11.86-6.62-15.27s-10.92-5-19.69-5h-17.69v71.31h7.49V627.67h14.92l9.3,29.89H1651l-10.58-31.82A20.78,20.78,0,0,0,1650.48,619Zm-4-12.09c0,4.65-1.4,8-4.28,10.38s-7.18,3.57-12.62,3.57h-11.75V593.27h10c6.74,0,11.61,1.1,14.48,3.29S1646.53,602.06,1646.53,606.89Z"/><path d="M1748.22,586.25h-19.89v71.31h17.78c12,0,21.28-3.1,27.55-9.23s9.47-15.25,9.47-27.08c0-11.3-3-20-9-26S1759.49,586.25,1748.22,586.25Zm27,35.19c0,19.65-9.62,29.2-29.4,29.2h-10V593.17h11.28c9.26,0,16.33,2.37,21,7.05S1775.22,612,1775.22,621.44Z"/><path d="M1841.36,586.11h-4.89L1807.8,657.7H1816l9.57-24.21h26.05l9.52,24.21h8.3L1841.69,587Zm7.64,40.36h-20.62l8.89-22.77c.55-1.33,1.07-2.74,1.57-4.24.56,1.63,1.06,3,1.51,4.1Z"/><polygon points="1895.07 593.45 1917.36 593.45 1917.36 657.57 1924.89 657.57 1924.89 593.45 1947.19 593.45 1947.19 586.25 1895.07 586.25 1895.07 593.45"/><path d="M2002.57,587l-.33-.85h-4.88l-28.68,71.59h8.21l9.58-24.21h26L2022,657.7h8.29Zm7.31,39.51h-20.62l8.9-22.77c.54-1.33,1.06-2.74,1.56-4.24.56,1.63,1.06,3,1.51,4.1Z"/><rect class="cls-1" x="707.73" y="85.49" width="86.31" height="465.54"/><rect class="cls-1" x="566.79" y="240.16" width="86.31" height="310.87"/><rect class="cls-1" x="425.85" y="132.8" width="86.31" height="418.23"/><polygon class="cls-1" points="190.22 604.63 190.22 508.89 136.28 560.44 136.28 658.57 886.13 658.57 886.13 604.63 190.22 604.63"/><polygon class="cls-1" points="190.22 312.7 190.22 31.09 136.28 31.09 136.28 332.96 190.22 312.7"/><polygon points="42.26 381.17 380.88 254.02 249.58 587.11 205.35 475.16 80.96 594.02 25.68 540.12 151.45 424.02 42.26 381.17"/><polygon class="cls-1" points="284.91 534.4 284.91 551.03 371.23 551.03 371.23 344.83 359.64 344.83 284.91 534.4"/></svg>